<svg width="12" height="12" viewBox="0 0 12 12" fill="none" xmlns="http://www.w3.org/2000/svg">
<g clip-path="url(#clip0_1316_5041)">
<path d="M12 2.72854V9.68304C12 10.135 11.634 10.501 11.182 10.501H9.2725V5.86504L6 8.32004L2.7275 5.86504V10.5015H0.818C0.710537 10.5015 0.604127 10.4804 0.50485 10.4392C0.405573 10.3981 0.315375 10.3378 0.23941 10.2618C0.163445 10.1858 0.103202 10.0955 0.0621231 9.99623C0.0210442 9.89693 -6.55338e-05 9.79051 1.52826e-07 9.68304V2.72854C1.52826e-07 1.71704 1.1545 1.13954 1.9635 1.74654L2.7275 2.32004L6 4.77404L9.2725 2.31904L10.0365 1.74654C10.845 1.14004 12 1.71704 12 2.72854Z" fill="black"/>
</g>
<defs>
<clipPath id="clip0_1316_5041">
<rect width="12" height="12" fill="white"/>
</clipPath>
</defs>
</svg>
