<svg width="159" height="159" viewBox="0 0 159 159" fill="none" xmlns="http://www.w3.org/2000/svg">
<circle cx="79.5" cy="79.5" r="79.5" fill="#17150C"/>
<path d="M104.953 106.537C104.953 104.407 105.678 102.617 107.126 101.169C108.66 99.6353 110.577 98.8685 112.877 98.8685C115.177 98.8685 117.052 99.6353 118.5 101.169C119.949 102.617 120.673 104.407 120.673 106.537C120.673 108.667 119.949 110.456 118.5 111.904C117.052 113.353 115.177 114.077 112.877 114.077C110.577 114.077 108.66 113.353 107.126 111.904C105.678 110.456 104.953 108.667 104.953 106.537Z" fill="#FFF7E7"/>
<path d="M104.953 106.537C104.953 104.407 105.678 102.617 107.126 101.169C108.66 99.6353 110.577 98.8685 112.877 98.8685C115.177 98.8685 117.052 99.6353 118.5 101.169C119.949 102.617 120.673 104.407 120.673 106.537C120.673 108.667 119.949 110.456 118.5 111.904C117.052 113.353 115.177 114.077 112.877 114.077C110.577 114.077 108.66 113.353 107.126 111.904C105.678 110.456 104.953 108.667 104.953 106.537Z" fill="#FFF7E7"/>
<path d="M98.3437 58.9452L92.2381 83.2623C91.9622 84.2468 91.4102 85.0672 90.5824 85.7235C89.7545 86.3798 88.7886 86.708 87.6848 86.708H84.6837C83.166 86.708 81.9586 86.1173 81.0618 84.9359C80.0959 83.8201 79.7854 82.5403 80.1304 81.0964L83.8559 66.3289C83.9248 66.0007 83.8559 65.7054 83.6489 65.4428C83.4419 65.1803 83.166 65.049 82.821 65.049H72.576C71.6791 65.049 71.2307 65.4757 71.2307 66.3289V101.082C71.2307 101.935 71.7136 102.362 72.6795 102.362H90.8928C92.2726 102.362 93.4109 102.821 94.3078 103.74C95.2047 104.593 95.6531 105.643 95.6531 106.89V109.548C95.6531 110.795 95.2047 111.878 94.3078 112.797C93.4109 113.65 92.2726 114.077 90.8928 114.077H72.6795C70.1269 114.077 67.8157 113.486 65.746 112.305C63.6763 111.124 62.0206 109.548 60.7787 107.579C59.5369 105.61 58.916 103.444 58.916 101.082V66.3289C58.916 65.4757 58.4676 65.049 57.5707 65.049C55.6154 65.049 51.951 65.1739 50.4747 63.7694C49.5778 62.9162 49.1294 61.866 49.1294 60.619V57.8624C49.1294 56.6154 49.5778 55.5653 50.4747 54.712C51.951 53.3076 55.6153 53.432 57.5707 53.432C58.3191 53.432 58.916 52.7815 58.916 52.0537C58.916 50.8066 59.3644 45.9928 60.2613 45.1395C61.2272 44.2207 62.3655 43.7612 63.6763 43.7612H66.4704C67.7812 43.7612 68.885 44.2207 69.7819 45.1395C70.7478 45.9928 71.2307 50.8066 71.2307 52.0537C71.2307 52.3818 71.3342 52.71 71.5412 53.0382C71.8171 53.3007 72.1621 53.432 72.576 53.432H93.6869C95.2047 53.432 96.4465 53.9899 97.4124 55.1056C98.3782 56.2214 98.6887 57.5012 98.3437 58.9452Z" fill="black"/>
<path d="M98.3437 58.9452L92.2381 83.2623C91.9622 84.2468 91.4102 85.0672 90.5824 85.7235C89.7545 86.3798 88.7886 86.708 87.6848 86.708H84.6837C83.166 86.708 81.9586 86.1173 81.0618 84.9359C80.0959 83.8201 79.7854 82.5403 80.1304 81.0964L83.8559 66.3289C83.9248 66.0007 83.8559 65.7054 83.6489 65.4428C83.4419 65.1803 83.166 65.049 82.821 65.049H72.576C71.6791 65.049 71.2307 65.4757 71.2307 66.3289V101.082C71.2307 101.935 71.7136 102.362 72.6795 102.362H90.8928C92.2726 102.362 93.4109 102.821 94.3078 103.74C95.2047 104.593 95.6531 105.643 95.6531 106.89V109.548C95.6531 110.795 95.2047 111.878 94.3078 112.797C93.4109 113.65 92.2726 114.077 90.8928 114.077H72.6795C70.1269 114.077 67.8157 113.486 65.746 112.305C63.6763 111.124 62.0206 109.548 60.7787 107.579C59.5369 105.61 58.916 103.444 58.916 101.082V66.3289C58.916 65.4757 58.4676 65.049 57.5707 65.049C55.6154 65.049 51.951 65.1739 50.4747 63.7694C49.5778 62.9162 49.1294 61.866 49.1294 60.619V57.8624C49.1294 56.6154 49.5778 55.5653 50.4747 54.712C51.951 53.3076 55.6153 53.432 57.5707 53.432C58.3191 53.432 58.916 52.7815 58.916 52.0537C58.916 50.8066 59.3644 45.9928 60.2613 45.1395C61.2272 44.2207 62.3655 43.7612 63.6763 43.7612H66.4704C67.7812 43.7612 68.885 44.2207 69.7819 45.1395C70.7478 45.9928 71.2307 50.8066 71.2307 52.0537C71.2307 52.3818 71.3342 52.71 71.5412 53.0382C71.8171 53.3007 72.1621 53.432 72.576 53.432H93.6869C95.2047 53.432 96.4465 53.9899 97.4124 55.1056C98.3782 56.2214 98.6887 57.5012 98.3437 58.9452Z" fill="#FFF7E7"/>
</svg>
